<?xml version="1.0" encoding="utf-8"?>
<!-- Generator: Adobe Illustrator 24.1.1, SVG Export Plug-In . SVG Version: 6.00 Build 0)  -->
<svg version="1.1" id="Layer_1" xmlns="http://www.w3.org/2000/svg" xmlns:xlink="http://www.w3.org/1999/xlink" x="0px" y="0px"
	 viewBox="0 0 512 512" style="enable-background:new 0 0 512 512;" xml:space="preserve">
<g>
	<path d="M512,259.2c0-33.6-27.2-51.2-64-51.2H340.8c8-28.8,11.2-56,11.2-80c0-92.8-25.6-112-48-112c-14.4,0-25.6,1.6-40,9.6
		c-4.8,3.2-6.4,6.4-8,11.2l-16,86.4c-17.6,44.8-60.8,84.8-96,112V464c12.8,0,25.6,6.4,41.6,14.4c17.6,8,35.2,17.6,54.4,17.6h152
		c32,0,56-25.6,56-48c0-4.8,0-8-1.6-11.2c19.2-8,33.6-24,33.6-44.8c0-9.6-1.6-17.6-4.8-25.6c12.8-8,24-22.4,24-38.4
		c0-9.6-4.8-19.2-9.6-27.2C502.4,291.2,512,275.2,512,259.2z M478.4,259.2c0,20.8-20.8,22.4-24,32c-3.2,11.2,12.8,14.4,12.8,33.6
		c0,19.2-24,19.2-27.2,30.4c-3.2,12.8,8,16,8,35.2v3.2c-3.2,16-27.2,17.6-32,24c-4.8,8,0,11.2,0,28.8c0,9.6-11.2,16-24,16H240
		c-12.8,0-25.6-6.4-41.6-14.4c-12.8-6.4-25.6-12.8-38.4-16V264c40-30.4,91.2-75.2,110.4-131.2v-3.2l14.4-80C291.2,48,296,48,304,48
		c3.2,0,16,19.2,16,80c0,24-4.8,49.6-12.8,80H304c-9.6,0-16,6.4-16,16s6.4,16,16,16h144C464,240,478.4,248,478.4,259.2z"/>
	<path d="M128,496H32c-17.6,0-32-14.4-32-32V240c0-17.6,14.4-32,32-32h96c17.6,0,32,14.4,32,32v224C160,481.6,145.6,496,128,496z
		 M32,240v224h96V240H32z"/>
</g>
</svg>
